#!OML:ASF F:\VICON\USERDATA\INSTALL\rory3\rory3.ASF
:FULLY-SPECIFIED
:DEGREES
181
root 0.63399 16.4603 15.1837 -176.49 -4.81928 -174.759
lowerback 17.5306 -3.12905 -4.20788
upperback 0.376026 -4.88789 5.00324
thorax -8.62658 -2.20948 9.11119
lowerneck -22.8196 0.560042 1.94466
upperneck 27.4537 1.04891 -0.719617
head 13.0117 0.837297 -0.36089
rclavicle -4.2689e-014 5.96354e-016
rhumerus 19.6028 -10.3935 -15.6388
rradius 39.427
rwrist -66.7469
rhand 30.467 -4.58884
rfingers 7.12502
rthumb 54.1263 -23.3411
lclavicle -4.2689e-014 5.96354e-016
lhumerus 48.3748 -4.23805 44.0839
lradius 89.2858
lwrist 55.2935
lhand 43.151 28.2789
lfingers 7.12502
lthumb 64.9501 35.5387
rfemur -108.103 -12.1532 27.1373
rtibia 130.767
rfoot 57.8266 -4.12885
rtoes 27.8796
lfemur -33.7176 -7.89107 -22.9181
ltibia 52.7648
lfoot -12.4839 6.74793
ltoes -10.1322
182
root 0.559352 16.7618 15.0224 -176.871 -5.31755 -173.527
lowerback 18.3328 -3.03841 -2.10765
upperback 0.384714 -4.3852 5.46746
thorax -9.27291 -2.04918 8.39364
lowerneck -23.0406 0.281353 2.40074
upperneck 27.6602 0.848925 -1.84957
head 13.1448 0.64504 -0.912963
rclavicle 1.00138e-013 1.98785e-014
rhumerus 20.4502 -16.2191 -16.1361
rradius 32.6716
rwrist -56.9969
rhand 30.2157 -3.79165
rfingers 7.12502
rthumb 53.9008 -22.6965
lclavicle 1.00138e-013 1.98785e-014
lhumerus 51.0267 -6.06205 39.9018
lradius 84.3138
lwrist 49.1924
lhand 41.3511 28.2004
lfingers 7.12502
lthumb 63.5053 37.6846
rfemur -107.954 -12.4569 26.2298
rtibia 127.036
rfoot 54.6868 -5.50217
rtoes 30.4418
lfemur -30.8983 -8.11932 -21.84
ltibia 49.4257
lfoot -9.77333 7.25274
ltoes -11.8674
183
root 0.483763 17.0786 14.8697 -176.908 -6.07586 -171.964
lowerback 19.2742 -3.50134 0.404341
upperback -0.296822 -4.42641 6.2152
thorax -10.6851 -2.13346 7.978
lowerneck -21.7547 0.239065 1.99942
upperneck 27.7436 1.35683 -2.68928
head 12.9328 0.754263 -1.07377
rclavicle 5.54609e-014 -1.51076e-014
rhumerus 22.8844 -23.2438 -18.5623
rradius 26.6576
rwrist -44.598
rhand 30.0894 -3.32836
rfingers 7.12502
rthumb 53.7873 -22.3092
lclavicle 5.54609e-014 -1.51076e-014
lhumerus 51.5448 -7.97679 35.2375
lradius 79.5055
lwrist 42.2858
lhand 38.8792 26.4401
lfingers 7.12502
lthumb 61.4598 38.5908
rfemur -107.897 -12.8714 25.8824
rtibia 122.821
rfoot 51.8116 -6.29116
rtoes 31.1597
lfemur -28.6169 -8.47066 -20.2514
ltibia 46.05
lfoot -6.73686 7.55578
ltoes -10.233
184
root 0.403978 17.4144 14.7185 -176.679 -7.1424 -170.618
lowerback 19.9896 -3.7908 3.21864
upperback -0.947269 -4.11032 6.5795
thorax -12.0435 -2.10821 6.85487
lowerneck -21.5781 -0.11013 2.22504
upperneck 28.2485 1.17741 -3.59185
head 13.1054 0.611489 -1.49227
rclavicle -4.25399e-014 -1.98785e-015
rhumerus 23.7154 -31.9309 -20.8684
rradius 23.0667
rwrist -31.0874
rhand 29.7894 -2.37531
rfingers 7.12502
rthumb 53.5176 -21.5344
lclavicle -4.25399e-014 -1.98785e-015
lhumerus 53.4036 -10.3337 30.7128
lradius 74.7814
lwrist 35.0802
lhand 39.785 23.1043
lfingers 7.12502
lthumb 62.2167 34.3257
rfemur -107.848 -13.9115 25.4365
rtibia 118.347
rfoot 49.3444 -7.03312
rtoes 31.6472
lfemur -26.8397 -8.62342 -18.819
ltibia 42.7373
lfoot -3.1245 7.85545
ltoes -8.10524
185
root 0.323731 17.7825 14.57 -176.314 -8.40902 -169.197
lowerback 20.7435 -4.40561 6.1198
upperback -1.73821 -4.1488 7.30388
thorax -13.5568 -2.30482 6.26785
lowerneck -22.2791 -0.306935 1.29103
upperneck 29.422 1.60817 -4.12457
head 13.7662 0.658102 -1.47533
rclavicle -6.9674e-014 -1.82882e-014
rhumerus 27.202 -41.6277 -25.4993
rradius 20.9084
rwrist -15.8168
rhand 29.9172 -1.59811
rfingers 7.12502
rthumb 53.6325 -20.6816
lclavicle -6.9674e-014 -1.82882e-014
lhumerus 54.1934 -12.1781 27.1424
lradius 70.2916
lwrist 28.125
lhand 39.8878 19.711
lfingers 7.12502
lthumb 62.3021 30.8235
rfemur -107.398 -15.1639 25.1346
rtibia 113.344
rfoot 46.748 -7.74881
rtoes 30.0604
lfemur -25.636 -8.13577 -17.1349
ltibia 39.6446
lfoot 0.93874 8.69544
ltoes 0.835689
186
root 0.242381 18.1839 14.4232 -175.71 -9.9038 -167.468
lowerback 21.3673 -5.08115 9.63405
upperback -2.71932 -4.04972 7.93788
thorax -15.3311 -2.5403 5.27495
lowerneck -23.8805 -0.506198 0.347023
upperneck 31.3288 2.04245 -4.26546
head 14.9749 0.743352 -1.30991
rclavicle -4.37326e-014 -5.32743e-014
rhumerus 30.9141 -49.8621 -30.1492
rradius 20.0771
rwrist -2.99198
rhand 28.6324 -2.34978
rfingers 7.12502
rthumb 52.4733 -22.17
lclavicle -4.37326e-014 -5.32743e-014
lhumerus 55.1808 -14.1532 23.9684
lradius 66.1314
lwrist 21.8288
lhand 38.6239 19.2234
lfingers 7.12502
lthumb 61.245 31.6267
rfemur -106.773 -16.5305 25.2163
rtibia 107.903
rfoot 45.8455 -8.84693
rtoes 31.9155
lfemur -25.0359 -6.99644 -14.9001
ltibia 36.7624
lfoot 3.06789 12.222
ltoes 12.9528
187
root 0.165665 18.5925 14.2729 -174.88 -11.8333 -166.131
lowerback 20.7477 -5.70391 12.6479
upperback -3.88413 -4.15346 8.8555
thorax -15.898 -2.97118 4.38628
lowerneck -24.5789 -0.63818 -0.626126
upperneck 32.3049 2.65994 -4.68251
head 15.6176 0.850783 -1.19995
rclavicle 4.11484e-014 -1.90833e-014
rhumerus 33.2631 -54.5524 -32.0582
rradius 19.6637
rwrist 3.78357
rhand 25.169 -5.53102
rfingers 7.12502
rthumb 49.3163 -27.1055
lclavicle 4.11484e-014 -1.90833e-014
lhumerus 56.0773 -15.701 21.4674
lradius 61.4243
lwrist 16.2938
lhand 37.2049 18.91
lfingers 7.12502
lthumb 60.0406 32.6476
rfemur -106.252 -18.3824 24.8504
rtibia 102.374
rfoot 45.0544 -10.4182
rtoes 33.0168
lfemur -24.8148 -4.77792 -13.0923
ltibia 34.0843
lfoot -3.72167 17.7896
ltoes 33.2796
188
root 0.0983807 18.953 14.1035 -174.044 -13.9767 -164.532
lowerback 19.838 -6.25285 16.1029
upperback -4.78252 -4.21913 9.57679
thorax -16.6038 -3.40467 3.51105
lowerneck -25.7894 -0.76419 -1.5053
upperneck 33.3189 3.33256 -5.18074
head 16.4289 0.950127 -1.13351
rclavicle 5.06901e-014 1.27222e-014
rhumerus 37.588 -60.4586 -36.0976
rradius 19.1514
rwrist 13.2175
rhand 24.4797 -5.09327
rfingers 7.12502
rthumb 48.683 -26.981
lclavicle 5.06901e-014 1.27222e-014
lhumerus 57.2202 -16.9118 19.5392
lradius 56.8226
lwrist 11.6094
lhand 35.6659 19.5249
lfingers 7.12502
lthumb 58.7158 34.5862
rfemur -106.032 -20.3371 24.7157
rtibia 97.0606
rfoot 44.6165 -11.0814
rtoes 32.4835
lfemur -23.6554 -0.58688 -11.221
ltibia 31.5152
lfoot -9.21566 15.7395
ltoes 47.8355
189
root 0.0358705 19.2934 13.9236 -173.291 -16.3386 -162.467
lowerback 18.5022 -6.73015 19.9828
upperback -5.72374 -4.3135 10.3564
thorax -17.1489 -3.94255 2.56076
lowerneck -26.952 -0.898407 -2.6712
upperneck 34.3802 3.93908 -5.05774
head 17.2571 1.05874 -0.753483
rclavicle 3.57812e-015 4.45278e-014
rhumerus 38.2893 -63.2725 -35.9731
rradius 18.8855
rwrist 18.2985
rhand 22.9131 -5.42145
rfingers 7.12502
rthumb 47.2385 -27.9819
lclavicle 3.57812e-015 4.45278e-014
lhumerus 58.4011 -17.8011 18.4428
lradius 52.0159
lwrist 7.55673
lhand 35.4303 19.479
lfingers 7.12502
lthumb 58.5114 34.7325
rfemur -105.802 -22.3658 24.9562
rtibia 91.743
rfoot 44.2762 -11.3494
rtoes 31.6755
lfemur -22.7113 3.38085 -8.52006
ltibia 29.2389
lfoot 6.04898 16.7056
ltoes 40.0967
190
root -0.0270437 19.6186 13.7418 -172.415 -18.5861 -160.52
lowerback 16.1133 -7.03859 23.6756
upperback -6.2589 -4.77148 10.9427
thorax -16.6575 -4.59149 1.51054
lowerneck -27.8625 -0.789688 -3.56118
upperneck 34.8487 4.48648 -4.59585
head 17.7079 1.20083 -0.270197
rclavicle 1.3418e-013 -6.99722e-014
rhumerus 35.5444 -63.9671 -32.5272
rradius 18.5955
rwrist 20.3881
rhand 20.4382 -5.87635
rfingers 7.12502
rthumb 44.943 -29.3983
lclavicle 1.3418e-013 -6.99722e-014
lhumerus 59.3893 -17.7146 18.0292
lradius 46.7368
lwrist 4.01371
lhand 35.4658 19.1349
lfingers 7.12502
lthumb 58.5422 34.3596
rfemur -105.686 -24.3541 25.0192
rtibia 86.3702
rfoot 43.7985 -11.8225
rtoes 30.7382
lfemur -21.5608 4.94299 -5.6147
ltibia 27.0423
lfoot 14.5092 17.4267
ltoes 49.7089
191
root -0.0901592 19.9317 13.574 -171.28 -20.4072 -158.912
lowerback 13.7165 -7.05956 26.8917
upperback -6.90841 -5.10545 11.3211
thorax -16.2985 -5.14462 0.478945
lowerneck -27.9038 -0.574188 -4.23945
upperneck 34.761 4.91866 -4.08306
head 17.6375 1.35594 0.178779
rclavicle 1.10723e-013 5.40694e-014
rhumerus 30.9845 -63.5461 -27.462
rradius 18.1991
rwrist 22.4156
rhand 18.3286 -5.94262
rfingers 7.12502
rthumb 42.975 -30.1974
lclavicle 1.10723e-013 5.40694e-014
lhumerus 59.9678 -17.3389 19.1858
lradius 41.6355
lwrist -0.17868
lhand 34.7148 20.6327
lfingers 7.12502
lthumb 57.8884 36.4537
rfemur -105.5 -25.9235 24.5548
rtibia 80.6655
rfoot 43.6595 -12.6938
rtoes 31.5699
lfemur -20.5734 5.36813 -2.92688
ltibia 25.4891
lfoot 14.5154 19.3232
ltoes 52.7588
192
root -0.0916931 20.2565 13.3779 -171.692 -22.2535 -157.086
lowerback 12.4394 -7.29578 29.3274
upperback -7.13562 -5.58921 11.5456
thorax -16.0804 -5.63068 -0.209101
lowerneck -27.2379 -0.389377 -4.35152
upperneck 34.0675 4.87886 -3.69015
head 17.0839 1.3992 0.355196
rclavicle -9.46215e-014 5.24792e-014
rhumerus 26.3356 -63.8863 -23.0291
rradius 17.8071
rwrist 26.1879
rhand 16.3784 -5.73394
rfingers 7.12502
rthumb 41.1475 -30.6033
lclavicle -9.46215e-014 5.24792e-014
lhumerus 60.4926 -16.4963 22.1606
lradius 36.8114
lwrist -6.13433
lhand 34.3633 22.2068
lfingers 7.12502
lthumb 57.5812 38.2982
rfemur -102.575 -26.2824 21.5639
rtibia 75.3928
rfoot 40.9852 -17.5519
rtoes 33.9671
lfemur -17.8606 4.9033 0.667396
ltibia 23.8647
lfoot 12.2265 21.8978
ltoes 42.282
193
root -0.102523 20.5195 13.2602 -171.339 -22.126 -155.966
lowerback 12.0155 -6.78376 30.664
upperback -7.36212 -4.85201 11.2067
thorax -16.0455 -5.47933 -1.37719
lowerneck -25.2752 -0.427748 -3.73795
upperneck 32.7746 4.08922 -3.47031
head 15.967 1.24632 0.156429
rclavicle 1.03766e-013 2.54444e-014
rhumerus 19.7655 -64.9656 -17.2238
rradius 17.5615
rwrist 30.2606
rhand 14.8555 -5.50116
rfingers 7.12502
rthumb 39.7156 -30.8124
lclavicle 1.03766e-013 2.54444e-014
lhumerus 61.491 -15.8652 25.6752
lradius 32.1876
lwrist -13.0127
lhand 31.4925 22.9324
lfingers 7.12502
lthumb 55.0436 41.0395
rfemur -100.301 -25.1285 17.7926
rtibia 69.6908
rfoot 36.6249 -24.3668
rtoes 40.1582
lfemur -15.0981 4.34636 3.21049
ltibia 22.4907
lfoot 8.75275 26.5981
ltoes 27.747
